# xmcd
#
# Track frame offsets: 
#        150
#        9980
#        22565
#        35052
#        45130
#        58815
#        70885
#        83350
#        94760
#        105972
#        120607
#        140307
#
# Disc length: 2031 seconds
#
# Revision: 2
# Processed by: cddbd v1.5.2PL0 Copyright (c) Steve Scherf et al.
# Submitted via: ExactAudioCopy v1.0b3
#
DISCID=8007ed0c
DTITLE=Koko Taylor - Koko Taylor
DYEAR=1900
DGENRE=
TTITLE0=Koko Taylor - Love you like a woman
TTITLE1=Koko Taylor - I love a lover like you
TTITLE2=Koko Taylor - Don't mess with the messer
TTITLE3=Koko Taylor - I don't care who know
TTITLE4=Koko Taylor - Wang dang doodle
TTITLE5=Koko Taylor - I'm a little mixed up
TTITLE6=Koko Taylor - Nitty gritty
TTITLE7=Koko Taylor - Fire
TTITLE8=Koko Taylor - Whatever I am, you made me
TTITLE9=Koko Taylor - Twenty-nine ways
TTITLE10=Koko Taylor - Insane Asylum
TTITLE11=Koko Taylor - Yes, it's good for you
EXTD=
EXTT0=
EXTT1=
EXTT2=
EXTT3=
EXTT4=
EXTT5=
EXTT6=
EXTT7=
EXTT8=
EXTT9=
EXTT10=
EXTT11=
PLAYORDER=
